<svg xmlns="http://www.w3.org/2000/svg" width="512" height="512" viewBox="0 0 512 512">
  <defs>
    <linearGradient id="bg" x1="0%" y1="0%" x2="100%" y2="100%">
      <stop offset="0%" style="stop-color:#1e3a5f"/>
      <stop offset="100%" style="stop-color:#2a5a8f"/>
    </linearGradient>
    <linearGradient id="gold" x1="0%" y1="0%" x2="0%" y2="100%">
      <stop offset="0%" style="stop-color:#dbb85c"/>
      <stop offset="100%" style="stop-color:#b8922e"/>
    </linearGradient>
  </defs>
  <!-- Background -->
  <rect width="512" height="512" rx="96" ry="96" fill="url(#bg)"/>

  <g transform="translate(256,260)">
    <!-- Base platform -->
    <rect x="-80" y="120" width="160" height="14" rx="7" fill="url(#gold)"/>
    <rect x="-16" y="108" width="32" height="20" rx="4" fill="url(#gold)"/>

    <!-- Center pillar -->
    <rect x="-7" y="-100" width="14" height="210" rx="7" fill="url(#gold)"/>

    <!-- Top circle ornament -->
    <circle cx="0" cy="-110" r="22" fill="url(#gold)"/>
    <circle cx="0" cy="-110" r="12" fill="#1e3a5f"/>

    <!-- Beam -->
    <rect x="-148" y="-96" width="296" height="10" rx="5" fill="url(#gold)"/>

    <!-- Left chain -->
    <line x1="-140" y1="-86" x2="-140" y2="10" stroke="#dbb85c" stroke-width="6" stroke-linecap="round"/>
    <line x1="-105" y1="-86" x2="-105" y2="10" stroke="#dbb85c" stroke-width="6" stroke-linecap="round"/>

    <!-- Right chain -->
    <line x1="105" y1="-86" x2="105" y2="10" stroke="#dbb85c" stroke-width="6" stroke-linecap="round"/>
    <line x1="140" y1="-86" x2="140" y2="10" stroke="#dbb85c" stroke-width="6" stroke-linecap="round"/>

    <!-- Left dish -->
    <ellipse cx="-122" cy="14" rx="56" ry="8" fill="#dbb85c" opacity="0.3"/>
    <path d="M-178,10 C-178,38 -166,56 -122,56 C-78,56 -66,38 -66,10" fill="none" stroke="#dbb85c" stroke-width="7" stroke-linecap="round"/>
    <ellipse cx="-122" cy="10" rx="56" ry="6" fill="none" stroke="#dbb85c" stroke-width="7"/>

    <!-- Right dish -->
    <ellipse cx="122" cy="14" rx="56" ry="8" fill="#dbb85c" opacity="0.3"/>
    <path d="M66,10 C66,38 78,56 122,56 C166,56 178,38 178,10" fill="none" stroke="#dbb85c" stroke-width="7" stroke-linecap="round"/>
    <ellipse cx="122" cy="10" rx="56" ry="6" fill="none" stroke="#dbb85c" stroke-width="7"/>
  </g>
</svg>
